PathFileType	4	(X/Y/Z)	D:\TRACE\spot_10-12-23\spot_arm_body_motion_3_9-platform.trc
DataRate	CameraRate	NumFrames	NumMarkers	Units	OrigDataRate	OrigDataStartFrame	OrigNumFrames
100.00	100.00	      62	5	mm	100.00	876	      7000
Frame#	Time	Left_Front			Right_Front			Left_Aft			Right_Aft			Post			
		X1	Y1	Z1	X2	Y2	Z2	X3	Y3	Z3	X4	Y4	Z4	X5	Y5	Z5	

876	8.750	-807.41345	27.27544	-636.22784	765.45923	31.71361	-629.14404	-724.12335	-9.37392	501.21558	693.30072	-7.34026	587.45258	-24.24897	774.65125	-930.99780	
877	8.760	-807.79242	26.93215	-636.29303	765.16425	31.43789	-629.38342	-724.45752	-9.19358	501.17517	692.94720	-7.21795	587.26862	-24.64780	774.31354	-931.71051	
878	8.770	-807.94043	26.74021	-636.30713	764.93585	31.17587	-629.46808	-724.76910	-9.12741	501.15054	692.55695	-7.25456	587.20856	-24.70074	773.86139	-932.09283	
879	8.780	-808.08521	26.51085	-636.33368	764.56439	30.77180	-629.68640	-725.03973	-8.93270	501.17780	692.27795	-7.07916	587.18219	-24.93561	773.35596	-932.38831	
880	8.790	-808.41614	26.38619	-636.48914	764.38855	30.60356	-629.66516	-725.34424	-8.66135	501.15955	691.92932	-6.76036	587.17737	-25.10349	773.02954	-932.57336	
881	8.800	-808.76477	25.95217	-636.53894	764.17987	30.56016	-629.64618	-725.39484	-8.58151	501.11969	691.72833	-6.44096	587.07867	-25.23342	772.66809	-932.79749	
882	8.810	-809.01544	25.63775	-636.54871	763.99756	30.38998	-629.69073	-725.71497	-8.41806	501.06888	691.44568	-6.20061	586.94946	-25.77744	772.30865	-933.14337	
883	8.820	-809.25214	25.45625	-636.59503	763.68787	29.99449	-629.76160	-725.95630	-8.31381	500.99615	691.24731	-6.09573	586.86591	-26.41797	771.95093	-933.47571	
884	8.830	-809.59491	25.13944	-636.76880	763.55200	29.60349	-629.72327	-726.15430	-8.20850	500.91235	691.11121	-5.89964	586.88727	-26.63288	771.62457	-933.71576	
885	8.840	-809.60828	24.81768	-636.97467	763.23865	29.07771	-629.81970	-726.29169	-7.99400	500.77881	690.86700	-5.54030	586.85376	-26.73177	770.95264	-933.95416	
886	8.850	-809.77313	24.42562	-637.04230	762.88141	28.54676	-629.91644	-726.69012	-7.41220	500.51981	690.60895	-5.09457	586.81329	-26.82200	770.27002	-934.40845	
887	8.860	-810.06152	23.99983	-637.15393	762.78271	28.28037	-629.98834	-727.01453	-7.13848	500.48578	690.46588	-4.86600	586.65692	-26.78891	769.82776	-934.80127	
888	8.870	-810.33612	23.65022	-637.31354	762.60773	27.98900	-630.11047	-727.30719	-6.88505	500.44223	690.34045	-4.63640	586.50714	-26.85599	769.31506	-935.42322	
889	8.880	-810.63202	23.42637	-637.42554	762.36414	27.58643	-630.33081	-727.51422	-6.75961	500.29291	690.06073	-4.35610	586.41101	-27.45080	768.76019	-936.05090	
890	8.890	-810.73132	22.87027	-637.45953	762.05469	27.25251	-630.67706	-727.62671	-6.45700	500.14682	689.71051	-4.00623	586.35968	-27.81982	768.02789	-936.84686	
891	8.900	-810.85156	22.37421	-637.56818	761.88977	26.76959	-630.69714	-727.73633	-6.15329	500.16397	689.58063	-3.74220	586.02173	-27.69041	767.60614	-937.56091	
892	8.910	-811.03125	22.28703	-637.82477	761.83093	26.45828	-630.66699	-727.75415	-5.79073	500.18869	689.22577	-3.86272	585.39410	-27.74896	767.00928	-938.15240	
893	8.920	-811.11749	21.81571	-637.84222	761.69183	26.24233	-630.79639	-727.86621	-5.46602	500.10867	689.41840	-3.03847	585.95331	-27.90957	766.45264	-938.90839	
894	8.930	-811.25189	21.40122	-637.90344	761.59473	25.63819	-630.82373	-728.00665	-5.18514	500.00366	689.21594	-2.72558	585.94043	-28.17456	765.62854	-939.76624	
895	8.940	-811.37689	20.91990	-638.00189	761.51160	25.14070	-630.97522	-728.09198	-4.97454	499.86340	689.01825	-2.33642	585.89886	-28.11491	765.14703	-940.19427	
896	8.950	-811.47217	20.45410	-638.20483	761.57574	24.77986	-631.05255	-728.28479	-4.66767	499.74146	688.85339	-1.99719	585.74475	-28.25974	764.42407	-940.68640	
897	8.960	-811.49774	20.08182	-638.40961	761.37091	24.29037	-631.21851	-728.28894	-4.25636	499.78992	688.83710	-1.44992	585.57123	-28.20382	763.72449	-941.20166	
898	8.970	-811.61499	19.42910	-638.47760	761.40375	23.70032	-631.24652	-728.38696	-3.99443	499.63495	688.78284	-1.08852	585.47058	-28.23910	763.10156	-941.65417	
899	8.980	-811.73505	18.54484	-638.41931	761.38000	23.11036	-631.44025	-728.42096	-3.59053	499.39490	688.83856	-0.76633	585.35748	-28.45402	762.24585	-942.42957	
900	8.990	-811.68872	17.88929	-638.54077	761.32251	22.70960	-631.59113	-728.43561	-3.22662	499.20993	688.84924	-0.46729	585.35181	-28.51673	761.66364	-943.04889	
901	9.000	-811.65277	17.57682	-638.73926	761.35040	22.34362	-631.73102	-728.45746	-2.98041	499.13376	688.87958	-0.00102	585.31165	-28.62246	760.93671	-943.52002	
902	9.010	-811.60785	17.44542	-638.94922	761.39868	21.78232	-631.94586	-728.51184	-2.68899	499.03134	688.78320	0.74028	585.20453	-28.62070	759.99158	-944.20844	
903	9.020	-811.66901	17.07774	-638.99805	761.47314	21.21370	-631.98749	-728.43481	-2.25550	499.05182	688.78357	1.02774	585.18475	-28.69364	759.58142	-944.89520	
904	9.030	-811.80585	16.67784	-639.15094	761.50262	21.00525	-632.03339	-728.49963	-1.81318	498.94861	688.87878	1.32304	585.10797	-28.40886	758.90533	-945.72577	
905	9.040	-811.91290	15.86177	-639.36200	761.10883	20.36707	-632.36237	-728.58319	-1.51711	498.79169	688.85474	1.84137	584.87463	-28.80864	757.81964	-946.56598	
906	9.050	-811.72833	15.23820	-639.49408	761.37823	19.66805	-632.46313	-728.57703	-1.13966	498.57593	688.87323	2.34671	584.68500	-28.48705	756.97308	-947.49341	
907	9.060	-811.73108	14.73044	-639.54773	761.32318	19.09184	-632.61859	-728.48700	-0.85684	498.51511	688.80743	2.61381	584.49310	-28.52822	756.07111	-948.19586	
908	9.070	-811.72144	14.14390	-639.73334	761.27728	18.58657	-632.80365	-728.41229	-0.29208	498.49884	688.68616	3.28054	584.40149	-28.40898	755.20197	-948.96771	
909	9.080	-811.78949	13.48398	-639.96088	761.34753	17.98925	-632.87775	-728.38361	0.08546	498.42535	688.74573	3.86968	584.26300	-28.89052	754.60510	-949.87305	
910	9.090	-811.73907	12.94945	-640.06671	761.39111	17.47197	-632.98877	-728.34973	0.48511	498.22141	688.93542	4.24992	583.99426	-28.59824	753.49554	-950.88348	
911	9.100	-811.61377	12.40487	-640.29657	761.41223	16.67400	-633.19250	-728.31769	0.91235	498.01971	689.04022	4.78929	583.90662	-28.49535	752.62250	-951.73248	
912	9.110	-811.32397	11.63050	-640.39691	761.53931	15.93763	-633.45117	-728.18872	1.27462	497.74457	688.99567	5.58829	584.20941	-28.45716	751.65472	-952.57678	
913	9.120	-810.95123	10.81865	-640.44128	761.92731	15.55571	-633.47406	-727.92706	1.74615	497.62762	689.29053	5.86966	584.01324	-27.86270	750.73718	-953.25006	
914	9.130	-810.24103	9.96964	-640.77460	762.18823	15.05091	-633.58972	-727.70715	2.43074	497.47202	689.71655	6.41422	583.69989	-27.24096	749.95703	-954.05414	
915	9.140	-810.62195	9.82347	-640.70703	762.31354	14.28565	-633.74841	-727.34943	2.56982	497.39282	690.00903	6.89813	583.45728	-27.58190	749.18579	-954.84009	
916	9.150	-810.37817	9.22940	-640.89948	762.39264	13.78249	-633.84540	-727.18048	2.77890	497.16519	690.18402	7.27589	583.25916	-27.32035	748.21838	-955.91327	
917	9.160	-810.25635	8.80321	-641.02997	762.51544	12.98019	-633.95044	-726.99457	3.15787	496.91495	690.35645	7.79097	583.16492	-27.14467	747.37378	-956.62378	
918	9.170	-809.96484	7.97448	-641.22876	762.78241	12.38661	-634.03027	-726.76129	3.58789	496.77017	690.55115	8.22095	583.08240	-26.96941	746.42090	-957.27386	
919	9.180	-809.94299	7.47845	-641.30750	763.10284	11.89291	-634.20416	-726.47949	4.32869	496.71494	690.79132	8.85718	582.79272	-26.47476	745.52380	-958.05127	
920	9.190	-809.40405	6.61653	-641.50665	763.42383	11.27137	-634.44501	-726.33716	4.91845	496.70108	691.11316	9.35779	582.54803	-26.02657	744.78986	-958.70685	
921	9.200	-809.17426	6.05654	-641.63556	763.78278	10.73044	-634.65454	-726.07288	5.25666	496.54117	691.43158	9.75587	582.45966	-25.82528	743.55414	-959.64014	
922	9.210	-808.83771	5.31936	-641.71796	764.06024	10.06522	-634.80170	-725.74084	5.54381	496.31918	691.54724	10.04061	582.33051	-25.63089	742.75745	-960.50696	
923	9.220	-808.37360	4.59650	-642.00592	764.28333	9.35608	-634.93542	-725.48706	5.86189	496.23697	691.75439	10.69627	582.11926	-25.67318	741.79767	-961.37909	
924	9.230	-808.41107	4.45741	-642.21887	764.64136	8.68925	-635.18365	-725.25885	6.15092	496.17572	692.19507	11.40342	581.91626	-25.33940	740.94855	-962.36658	
925	9.240	-808.03973	3.86969	-642.35486	764.93408	8.23680	-635.21875	-724.88293	6.89504	495.97659	692.54791	11.96787	581.81433	-24.81978	740.10144	-963.03406	
926	9.250	-807.54315	3.07614	-642.41663	765.31647	7.65860	-635.42133	-724.52673	7.42135	495.70047	692.77899	12.30685	581.59973	-24.31254	739.08636	-964.04456	
927	9.260	-807.23602	2.41620	-642.40173	765.44965	7.16617	-635.62195	-724.31421	7.83428	495.63040	693.09894	12.80114	581.45953	-24.09060	738.31195	-964.77258	
928	9.270	-806.81659	1.54920	-642.50360	765.80640	6.35079	-635.69769	-723.88342	8.07203	495.48834	693.46289	13.21350	581.36395	-23.57869	737.13141	-965.83093	
929	9.280	-806.50159	1.04692	-642.76263	765.90479	5.65646	-635.98468	-723.40637	8.54870	495.40286	693.91382	13.77954	581.24841	-23.69186	736.37878	-966.69720	
930	9.290	-805.90240	0.26928	-642.93707	766.49921	5.05233	-635.76276	-723.10229	8.89037	495.31030	694.36517	14.29961	581.13849	-23.13915	735.51813	-967.69360	
931	9.300	-805.71204	0.07166	-643.07935	766.87408	4.58999	-635.95087	-722.81909	9.29908	495.05865	694.73438	14.74753	580.87177	-22.90103	734.75427	-968.35626	
932	9.310	-805.40961	-0.23102	-643.19586	767.34900	4.25208	-636.08197	-722.46136	9.86207	494.87766	694.99170	15.17538	580.73853	-22.32407	733.59888	-968.96057	
933	9.320	-805.21448	-0.94564	-643.31970	767.81012	3.39774	-636.33270	-721.99683	10.08357	494.84555	695.28088	15.72960	580.66565	-21.87993	732.84485	-969.69916	
934	9.330	-804.78143	-2.39951	-643.39612	768.21051	2.67230	-636.41620	-721.65936	10.19870	494.71902	695.63501	16.24821	580.67792	-21.52824	732.21228	-970.22119	
935	9.340	-804.33508	-2.84132	-643.54108	768.44049	2.17873	-636.67151	-721.26489	10.46212	494.57556	696.00964	16.61083	580.51263	-20.91881	731.00513	-971.04321	
936	9.350	-803.83728	-2.82281	-643.63098	768.57806	2.25754	-636.69037	-720.75867	10.90929	494.55844	696.36804	16.85939	580.28357	-20.70039	730.37354	-971.73248	
937	9.360	-803.41736	-3.14945	-643.68311	768.91455	1.48153	-636.84808	-720.48706	11.50489	494.41956	696.73151	17.34735	580.13092	-20.40864	729.92493	-972.26337	
